# xmcd
# 
# Track frame offsets:
#     150
#     19004
#     36782
#     65269
#     87531
#     101875
#     134006
#     153447
#     173213
#     191123
#     208471
#     226812
#     248510
#     261501
#     286626
# 
# Disc length: 4063
# 
# Revision: 2
# Processed by: cddbd v1.5.2PL0 Copyright (c) Steve Scherf et al.
# Submitted via: fre:ac v1.0.31
# 
DISCID=d90fdd0f
DTITLE=Various Artist - Salsa Fever
DYEAR=2006
DGENRE=Salsa
TTITLE0=J. C. Bazan - Soy Caminando
TTITLE1=Felipe Mandingo - El Muneco
TTITLE2=Rodrigo Tobar - Suenos perdidos
TTITLE3=J. C. Bazan - Cerca de ti
TTITLE4=Gonzales - Mi Corazon haze tic-tac
TTITLE5=Banda Tropical - Latin Medley 2
TTITLE6=Rodrigo Tobar - Coronacion
TTITLE7=J. C. Bazan - Mi Corazon
TTITLE8=Adriana - Devorame otra vez
TTITLE9=Rodrigo Tobar - Buenos Tiempos
TTITLE10=Valdeci Oliveira - Lady salsa
TTITLE11=J. C. Bazan - Vagabundo
TTITLE12=Jürgen Hahn - Demasiado Corazon
TTITLE13=Javier Plaza - Mi Orchesta
TTITLE14=Bolero en Blues - Valdeci Oliveira
EXTD=YEAR: 2006
EXTT0=
EXTT1=
EXTT2=
EXTT3=
EXTT4=
EXTT5=
EXTT6=
EXTT7=
EXTT8=
EXTT9=
EXTT10=
EXTT11=
EXTT12=
EXTT13=
EXTT14=
PLAYORDER=
